<svg width="20" height="20" viewBox="0 0 20 20" fill="none" xmlns="http://www.w3.org/2000/svg">
<path d="M17.622 6.818C17.506 6.908 15.458 8.062 15.458 10.628C15.458 13.596 18.064 14.646 18.142 14.672C18.13 14.736 17.728 16.11 16.768 17.51C15.912 18.742 15.018 19.972 13.658 19.972C12.298 19.972 11.948 19.182 10.378 19.182C8.848 19.182 8.304 19.998 7.06 19.998C5.816 19.998 4.948 18.858 3.95 17.458C2.794 15.814 1.86 13.26 1.86 10.836C1.86 6.948 4.388 4.886 6.876 4.886C8.198 4.886 9.3 5.754 10.13 5.754C10.92 5.754 12.152 4.834 13.656 4.834C14.226 4.834 16.274 4.886 17.622 6.818ZM12.942 3.188C13.564 2.45 14.004 1.426 14.004 0.402C14.004 0.26 13.992 0.116 13.966 0C12.954 0.038 11.75 0.674 11.024 1.516C10.454 2.164 9.922 3.188 9.922 4.226C9.922 4.382 9.948 4.538 9.96 4.588C10.024 4.6 10.128 4.614 10.232 4.614C11.14 4.614 12.282 4.006 12.942 3.188Z" fill="#7B7B7B"/>
</svg>
