<svg width="20" height="20" viewBox="0 0 20 20" fill="none" xmlns="http://www.w3.org/2000/svg">
<path d="M16.9419 3.5232C15.6303 2.90951 14.2427 2.47345 12.8158 2.22656C12.638 2.54789 12.4304 2.98008 12.2872 3.32391C10.7487 3.09258 9.22445 3.09258 7.71429 3.32391C7.57117 2.98016 7.35882 2.54789 7.17945 2.22656C5.75116 2.47357 4.36239 2.91073 3.05015 3.52641C0.438901 7.47242 -0.26899 11.3203 0.0849164 15.1137C1.81687 16.4071 3.49531 17.1928 5.14546 17.707C5.55557 17.143 5.91809 16.5459 6.22929 15.9219C5.63681 15.6963 5.06564 15.4183 4.52257 15.0912C4.66549 14.9853 4.80503 14.8749 4.94101 14.7602C8.23179 16.2995 11.8074 16.2995 15.059 14.7602C15.1955 14.8742 15.335 14.9845 15.4773 15.0912C14.9334 15.4192 14.3612 15.6977 13.7675 15.9235C14.0805 16.5501 14.4423 17.1477 14.8513 17.7085C16.503 17.1945 18.183 16.4087 19.915 15.1137C20.3303 10.7162 19.2056 6.90367 16.9419 3.5232ZM6.67765 12.7809C5.68976 12.7809 4.8796 11.8586 4.8796 10.7355C4.8796 9.6125 5.67249 8.68867 6.67765 8.68867C7.68289 8.68867 8.49296 9.61086 8.4757 10.7355C8.47726 11.8586 7.68289 12.7809 6.67765 12.7809ZM13.3223 12.7809C12.3344 12.7809 11.5243 11.8586 11.5243 10.7355C11.5243 9.6125 12.3171 8.68867 13.3223 8.68867C14.3275 8.68867 15.1376 9.61086 15.1203 10.7355C15.1203 11.8586 14.3275 12.7809 13.3223 12.7809Z" fill="#7B7B7B"/>
</svg>
