<svg width="20" height="20" viewBox="0 0 20 20" fill="none" xmlns="http://www.w3.org/2000/svg">
<path fill-rule="evenodd" clip-rule="evenodd" d="M3.45155 0.839233H16.3357V3.43969H20L19.2317 6.04017H18.5816V16.5603C18.908 16.5603 19.1726 16.8249 19.1726 17.1513V17.8605H19.2908C19.6172 17.8605 19.8818 18.1251 19.8818 18.4515V19.1608H16.3357H14.4445H13.2624V18.4515C13.2624 18.1251 13.527 17.8605 13.8534 17.8605H13.9716V17.1513C13.9716 16.8654 14.1747 16.6269 14.4445 16.5721V10.7683H14.4259C14.2169 8.44884 12.2675 6.63118 9.89363 6.63118C7.51974 6.63118 5.57038 8.44884 5.36134 10.7683H5.3428V16.5603H5.46099C5.7874 16.5603 6.05203 16.8249 6.05203 17.1513V17.8605H6.17022C6.49663 17.8605 6.76123 18.1251 6.76123 18.4515V19.1608H5.3428H3.45155H0.141842V18.4515C0.141842 18.1251 0.40647 17.8605 0.732879 17.8605H0.851071V17.1513C0.851071 16.8249 1.11567 16.5603 1.44208 16.5603V6.04017H0.791975L0.0236511 3.43969H3.45155V0.839233Z" fill="#7B7B7B"/>
</svg>
