<svg width="20" height="20" viewBox="0 0 20 20" fill="none" xmlns="http://www.w3.org/2000/svg">
<path d="M5.33766 15.8734C5.49093 15.5042 5.63193 15.1287 5.76016 14.7474M11.9527 17.2438C12.1746 16.6182 12.3713 15.9807 12.5418 15.3325C12.6966 14.7445 12.8297 14.1477 12.9402 13.543M16.2064 14.2152C16.5101 12.5787 16.6688 10.8912 16.6688 9.16667C16.6688 5.48477 13.6841 2.5 10.0022 2.5C8.956 2.5 7.9661 2.74098 7.08496 3.17047M2.9362 12.5204C3.19719 11.4452 3.33552 10.3221 3.33552 9.16667C3.33552 7.71641 3.7986 6.37431 4.58496 5.28017M10.0025 9.16667C10.0025 11.467 9.62975 13.6803 8.94125 15.7493C8.76408 16.2818 8.566 16.8046 8.348 17.3169M6.42689 12.0833C6.58602 11.1348 6.66885 10.1604 6.66885 9.16667C6.66885 7.32572 8.16123 5.83333 10.0022 5.83333C11.8432 5.83333 13.3355 7.32572 13.3355 9.16667C13.3355 9.6805 13.3195 10.1906 13.2879 10.6964" stroke="#6E6E6E" stroke-width="1.66667" stroke-linecap="round" stroke-linejoin="round"/>
</svg>
