<svg width="21" height="21" viewBox="0 0 21 21" fill="none" xmlns="http://www.w3.org/2000/svg">
<mask id="mask0_127_44" style="mask-type:alpha" maskUnits="userSpaceOnUse" x="0" y="0" width="21" height="21">
<g clip-path="url(#clip0_127_44)">
<g clip-path="url(#clip1_127_44)">
<path d="M17.5883 17.6156H14.6001V12.9373C14.6001 11.8219 14.5811 10.3868 13.047 10.3868C11.5129 10.3868 11.2541 11.6011 11.2541 12.8573V17.6156H8.26586V7.99625H11.1323V9.30955H11.1741C11.7604 8.3084 12.8453 7.71456 14.0025 7.75643C17.0288 7.75643 17.5883 9.74731 17.5883 12.3396V17.6156ZM4.89698 6.68296C3.94151 6.68296 3.16496 5.9064 3.16496 4.95094C3.16496 3.99547 3.94151 3.21891 4.89698 3.21891C5.85245 3.21891 6.629 3.99547 6.629 4.95094C6.629 5.9064 5.85245 6.68296 4.89698 6.68296ZM6.39299 17.6156H3.40097V7.99625H6.39299V17.6156ZM19.0805 0.440059H1.90115C1.09033 0.432446 0.42417 1.08338 0.41275 1.8942V19.1459C0.42417 19.9567 1.08653 20.6077 1.90115 20.6001H19.0805C19.8952 20.6115 20.5613 19.9605 20.5727 19.1459V1.8942C20.5613 1.07958 19.8914 0.428639 19.0805 0.440059Z" fill="black"/>
</g>
</g>
</mask>
<g mask="url(#mask0_127_44)">
<rect x="0.41275" y="0.440002" width="20.16" height="20.16" fill="black"/>
</g>
<defs>
<clipPath id="clip0_127_44">
<rect width="20.16" height="20.16" fill="white" transform="translate(0.41275 0.440002)"/>
</clipPath>
<clipPath id="clip1_127_44">
<rect width="20.16" height="20.16" fill="white" transform="translate(0.41275 0.440002)"/>
</clipPath>
</defs>
</svg>
