<svg width="32" height="32" viewBox="0 0 32 32" fill="none" xmlns="http://www.w3.org/2000/svg">
<rect width="32" height="32" rx="8" fill="white"/>
<rect x="0.5" y="0.5" width="31" height="31" rx="7.5" stroke="white" stroke-opacity="0.05"/>
<mask id="mask0_30_490" style="mask-type:luminance" maskUnits="userSpaceOnUse" x="4" y="4" width="24" height="24">
<path d="M27.9997 4.01172H4.02307V27.9883H27.9997V4.01172Z" fill="white"/>
</mask>
<g mask="url(#mask0_30_490)">
<path d="M24.1835 24.4069L20.1353 23.2015L17.0824 25.0265L14.9525 25.0256L11.8978 23.2015L7.85141 24.4069L6.62054 20.2518L7.85141 15.6402L6.62054 11.7412L7.85141 6.90887L14.1742 10.6865H17.8607L24.1835 6.90887L25.4144 11.7412L24.1835 15.6402L25.4144 20.2518L24.1835 24.4069Z" fill="#FF5C16"/>
<path d="M7.85229 6.90887L14.1752 10.6891L13.9237 13.2834L7.85229 6.90887Z" fill="#FF5C16"/>
<path d="M11.8987 20.2536L14.6807 22.3728L11.8987 23.2015V20.2536Z" fill="#FF5C16"/>
<path d="M14.4583 16.7498L13.9236 13.2852L10.501 15.641L10.4993 15.6402V15.6419L10.5099 18.0669L11.8978 16.7498H11.8987H14.4583Z" fill="#FF5C16"/>
<path d="M24.1835 6.90887L17.8607 10.6891L18.1112 13.2834L24.1835 6.90887Z" fill="#FF5C16"/>
<path d="M20.1371 20.2536L17.3551 22.3728L20.1371 23.2015V20.2536Z" fill="#FF5C16"/>
<path d="M21.5357 15.6419V15.6402L21.5348 15.641L18.1122 13.2852L17.5775 16.7498H20.1372L21.526 18.0669L21.5357 15.6419Z" fill="#FF5C16"/>
<path d="M11.8978 23.2014L7.85141 24.4069L6.62054 20.2535H11.8978V23.2014Z" fill="#E34807"/>
<path d="M14.4575 16.749L15.2304 21.7577L14.1592 18.9728L10.5081 18.0669L11.8969 16.749H14.4566H14.4575Z" fill="#E34807"/>
<path d="M20.1371 23.2014L24.1835 24.4069L25.4143 20.2535H20.1371V23.2014Z" fill="#E34807"/>
<path d="M17.5774 16.749L16.8045 21.7577L17.8757 18.9728L21.5268 18.0669L20.1371 16.749H17.5774Z" fill="#E34807"/>
<path d="M6.62054 20.2517L7.85141 15.6401H10.4984L10.5081 18.066L14.1593 18.9719L15.2304 21.7567L14.6798 22.3701L11.8978 20.2509H6.62054V20.2517Z" fill="#FF8D5D"/>
<path d="M25.4144 20.2517L24.1835 15.6401H21.5365L21.5268 18.066L17.8757 18.9719L16.8045 21.7567L17.3551 22.3701L20.1371 20.2509H25.4144V20.2517Z" fill="#FF8D5D"/>
<path d="M17.8607 10.6865H16.0175H14.1743L13.9237 13.2808L15.2305 21.7542H16.8045L18.1122 13.2808L17.8607 10.6865Z" fill="#FF8D5D"/>
<path d="M7.85141 6.90887L6.62054 11.7412L7.85141 15.6402H10.4984L13.9228 13.2834L7.85141 6.90887Z" fill="#661800"/>
<path d="M13.6925 17.755H12.4934L11.8405 18.3949L14.1601 18.9702L13.6925 17.7541V17.755Z" fill="#661800"/>
<path d="M24.1835 6.90887L25.4144 11.7412L24.1835 15.6402H21.5365L18.1121 13.2834L24.1835 6.90887Z" fill="#661800"/>
<path d="M18.3442 17.755H19.5451L20.198 18.3958L17.8757 18.9719L18.3442 17.7541V17.755Z" fill="#661800"/>
<path d="M17.0816 23.3735L17.3551 22.372L16.8045 21.7586H15.2295L14.679 22.372L14.9525 23.3735" fill="#661800"/>
<path d="M17.0815 23.3734V25.0273H14.9524V23.3734H17.0815Z" fill="#C0C4CD"/>
<path d="M11.8987 23.1997L14.9542 25.0265V23.3726L14.6807 22.371L11.8987 23.1997Z" fill="#E7EBF6"/>
<path d="M20.1371 23.1997L17.0815 25.0265V23.3726L17.3551 22.371L20.1371 23.1997Z" fill="#E7EBF6"/>
</g>
</svg>
