<svg width="32" height="32" viewBox="0 0 32 32" fill="none" xmlns="http://www.w3.org/2000/svg">
<rect width="32" height="32" rx="8" fill="#AB9EF2"/>
<rect x="0.5" y="0.5" width="31" height="31" rx="7.5" stroke="white" stroke-opacity="0.05"/>
<path d="M8.36272 24.3137C10.9108 24.3137 12.8256 22.0977 13.9684 20.3466C13.8294 20.7341 13.7522 21.1214 13.7522 21.4934C13.7522 22.5161 14.339 23.2444 15.4972 23.2444C17.0878 23.2444 18.7865 21.8498 19.6667 20.3466C19.6049 20.5636 19.5741 20.7651 19.5741 20.951C19.5741 21.6638 19.9755 22.1132 20.794 22.1132C23.3729 22.1132 25.9673 17.5419 25.9673 13.5439C25.9673 10.4291 24.3921 7.68634 20.4389 7.68634C13.4897 7.68634 6 16.1782 6 21.6638C6 23.8178 7.1582 24.3137 8.36272 24.3137ZM18.0452 13.203C18.0452 12.4282 18.4776 11.8858 19.1108 11.8858C19.7285 11.8858 20.1609 12.4282 20.1609 13.203C20.1609 13.9778 19.7285 14.5356 19.1108 14.5356C18.4776 14.5356 18.0452 13.9778 18.0452 13.203ZM21.3499 13.203C21.3499 12.4282 21.7824 11.8858 22.4155 11.8858C23.0332 11.8858 23.4656 12.4282 23.4656 13.203C23.4656 13.9778 23.0332 14.5356 22.4155 14.5356C21.7824 14.5356 21.3499 13.9778 21.3499 13.203Z" fill="#FFFDF8"/>
</svg>
